
<svg width="128" height="128" viewBox="0 0 128 128" fill="none" xmlns="http://www.w3.org/2000/svg">
<g clip-path="url(#clip0_1641_2)">
<g clip-path="url(#clip1_1641_2)">
<path d="M41.6667 0V42.6667H43.6667V0H41.6667Z" fill="white" fill-opacity="0.5" mask="url(#path-5-inside-3_1641_2)"/>
<path d="M86.3333 42.6667V0H84.3333V42.6667H86.3333Z" fill="white" fill-opacity="0.5" mask="url(#path-7-inside-4_1641_2)"/>
</g>
<path d="M128 41.6667H0V43.6667H128V41.6667Z" fill="white" fill-opacity="0.5" mask="url(#path-3-inside-2_1641_2)"/>
<g clip-path="url(#clip2_1641_2)">
<path d="M41.6667 42.6667V85.3333H43.6667V42.6667H41.6667Z" fill="white" fill-opacity="0.5" mask="url(#path-9-inside-5_1641_2)"/>
<path d="M86.3333 85.3333V42.6667H84.3333V85.3333H86.3333Z" fill="white" fill-opacity="0.5" mask="url(#path-11-inside-6_1641_2)"/>
</g>
<g clip-path="url(#clip3_1641_2)">
<path d="M41.6667 85.3333V128H43.6667V85.3333H41.6667Z" fill="white" fill-opacity="0.5" mask="url(#path-15-inside-8_1641_2)"/>
<path d="M86.3333 128V85.3333H84.3333V128H86.3333Z" fill="white" fill-opacity="0.5" mask="url(#path-17-inside-9_1641_2)"/>
</g>
<path d="M0 86.3333H128V84.3333H0V86.3333Z" fill="white" fill-opacity="0.5" mask="url(#path-13-inside-7_1641_2)"/>
</g>
<path d="M128 128V129H129V128H128ZM127 0V128H129V0H127ZM128 127H0V129H128V127Z" fill="white" fill-opacity="0.5" mask="url(#path-1-inside-1_1641_2)"/>
<defs>
<clipPath id="clip0_1641_2">
<path d="M0 0H128V128H0V0Z" fill="white"/>
</clipPath>
<clipPath id="clip1_1641_2">
<path d="M0 0H128V42.6667H0V0Z" fill="white"/>
</clipPath>
<clipPath id="clip2_1641_2">
<rect width="128" height="42.6667" fill="white" transform="translate(0 42.6667)"/>
</clipPath>
<clipPath id="clip3_1641_2">
<path d="M0 85.3333H128V128H0V85.3333Z" fill="white"/>
</clipPath>
</defs>
</svg>
