<svg xmlns="http://www.w3.org/2000/svg" viewBox="0 0 100 100">
  <rect width="100" height="100" rx="18" fill="#f5efdf"/>
  <g fill="#2a3d78">
    <g transform="translate(19.293 74) scale(0.072 -0.072)"><path d="M409 521Q452 521 470.5 490Q489 459 489 415Q489 370 480.5 313.5Q472 257 452.5 199.5Q433 142 402 93.5Q371 45 326 15.5Q281 -14 222 -14Q198 -14 174 -8.5Q150 -3 130 13.5Q110 30 98.5 62.5Q87 95 90 149L103 422Q104 438 98.5 446.5Q93 455 84 457.5Q75 460 61 456L17 442L0 488Q17 498 51 509.5Q85 521 116 521Q159 521 176 497.5Q193 474 191 437L175 155Q173 123 176.5 99.5Q180 76 194 63Q208 50 236 50Q271 50 299 70Q327 90 348 122.5Q369 155 383 194.5Q397 234 405 274Q413 314 415 346Q417 374 414 388.5Q411 403 403 410.5Q395 418 381 423L345 436Q343 458 348.5 477.5Q354 497 369.5 509Q385 521 409 521Z"/></g>
    <g transform="translate(57.667 74) scale(0.072 -0.072)"><path d="M89 50Q89 73 99 90.5Q109 108 127 118Q145 128 169 128Q192 128 209.5 119.5Q227 111 236.5 95.5Q246 80 246 59Q246 35 235 18Q224 1 205.5 -8Q187 -17 164 -17Q142 -17 125 -9Q108 -1 98.5 13.5Q89 28 89 50Z"/></g>
  </g>
</svg>
