<svg xmlns="http://www.w3.org/2000/svg" viewBox="0 0 100 100">
  <rect width="100" height="100" rx="18" fill="#f5efdf"/>
  <g fill="#2a3d78">
    <g transform="translate(19.328 74) scale(0.072 -0.072)"><path d="M406 527Q442 527 457 500.5Q472 474 472 430Q472 382 465.5 323Q459 264 444 205Q429 146 402 96.5Q375 47 334 16.5Q293 -14 235 -14Q211 -14 186 -8.5Q161 -3 140 13.5Q119 30 107 62.5Q95 95 98 149L113 464Q114 486 103.5 493Q93 500 77 498.5Q61 497 44 491L14 480L8 494Q28 504 61.5 515.5Q95 527 124 527Q167 527 184 503.5Q201 480 199 443L180 114Q178 82 181.5 58.5Q185 35 200 22Q215 9 246 9Q282 9 313 28.5Q344 48 368 81.5Q392 115 408.5 160Q425 205 434 256Q443 307 443 360Q443 392 439 407Q435 422 426 428Q417 434 400 438L347 452Q346 473 351.5 490Q357 507 370.5 517Q384 527 406 527Z"/></g>
    <g transform="translate(54.032 74) scale(0.072 -0.072)"><path d="M94 52Q94 74 103.5 91.5Q113 109 130 119Q147 129 169 129Q190 129 206 120Q222 111 230.5 96Q239 81 239 61Q239 38 228.5 21Q218 4 201 -5Q184 -14 164 -14Q143 -14 127 -5Q111 4 102.5 19Q94 34 94 52Z"/></g>
  </g>
</svg>
