<svg width="100" height="100" viewBox="0 0 100 100" fill="none" xmlns="http://www.w3.org/2000/svg">
<rect width="100" height="100" rx="32" fill="#FF6A00"/>
<path d="M29.8467 78.4182C29.8467 78.4182 29.8467 77.9411 29.8467 76.9868V68.9409H34.5854H39.3241C39.3241 68.9409 39.3241 69.418 39.3241 70.3723V78.4182C39.3241 78.4182 38.8469 78.4182 37.8926 78.4182H29.8467ZM27.4774 73.6795C27.4774 73.6795 27.4774 73.2024 27.4774 72.2481V64.2022H32.2161H36.9547C36.9547 64.2022 36.9547 64.6793 36.9547 65.6337V73.6795C36.9547 73.6795 36.4776 73.6795 35.5233 73.6795H32.2161H27.4774ZM32.2161 73.6795C32.2161 73.6795 32.2161 73.2024 32.2161 72.2481V64.2022H36.9547H41.6934C41.6934 64.2022 41.6934 64.6793 41.6934 65.6337V73.6795C41.6934 73.6795 41.2163 73.6795 40.2619 73.6795H36.9547H32.2161ZM25.108 68.9409C25.108 68.9409 25.108 68.4637 25.108 67.5094V59.4635H29.8467H34.5854C34.5854 59.4635 34.5854 59.9406 34.5854 60.895V59.4635H39.3241H44.0628C44.0628 59.4635 44.0628 59.9406 44.0628 60.895V68.9409C44.0628 68.9409 43.5856 68.9409 42.6313 68.9409H39.3241H34.5854C34.5854 68.9409 34.5854 68.4637 34.5854 67.5094V68.9409C34.5854 68.9409 34.1082 68.9409 33.1539 68.9409H29.8467H25.108ZM22.7387 64.2022C22.7387 64.2022 22.7387 63.725 22.7387 62.7707V54.7248H27.4774H32.2161C32.2161 54.7248 32.2161 55.202 32.2161 56.1563V64.2022C32.2161 64.2022 31.7389 64.2022 30.7846 64.2022H27.4774H22.7387ZM36.9547 64.2022C36.9547 64.2022 36.9547 63.725 36.9547 62.7707V54.7248H41.6934H46.4321C46.4321 54.7248 46.4321 55.202 46.4321 56.1563V64.2022C46.4321 64.2022 45.9549 64.2022 45.0006 64.2022H41.6934H36.9547ZM20.3693 59.4635C20.3693 59.4635 20.3693 58.9863 20.3693 58.032V49.9861H29.8467C29.8467 49.9861 29.8467 50.4633 29.8467 51.4176V59.4635C29.8467 59.4635 29.3696 59.4635 28.4152 59.4635H25.108H20.3693ZM39.3241 59.4635C39.3241 59.4635 39.3241 58.9863 39.3241 58.032V49.9861H48.8015C48.8015 49.9861 48.8015 50.4633 48.8015 51.4176V59.4635C48.8015 59.4635 48.3243 59.4635 47.37 59.4635H44.0628H39.3241ZM18 54.7248C18 54.7248 18 54.2476 18 53.2933V49.9861V45.2474C18 45.2474 18 44.7703 18 43.816V40.5088V35.7701C18 35.7701 18 35.2929 18 34.3386V31.0314V26.2927H27.4774C27.4774 26.2927 27.4774 26.7699 27.4774 27.7242V31.0314V35.7701C27.4774 35.7701 27.0002 35.7701 26.0459 35.7701H27.4774C27.4774 35.7701 27.4774 36.2472 27.4774 37.2015V40.5088V45.2474C27.4774 45.2474 27.0002 45.2474 26.0459 45.2474H27.4774C27.4774 45.2474 27.4774 45.7246 27.4774 46.6789V49.9861V54.7248C27.4774 54.7248 27.0002 54.7248 26.0459 54.7248H22.7387H18ZM41.6934 54.7248C41.6934 54.7248 41.6934 54.2476 41.6934 53.2933V49.9861V45.2474C41.6934 45.2474 41.6934 44.7703 41.6934 43.816V40.5088V35.7701C41.6934 35.7701 41.6934 35.2929 41.6934 34.3386V31.0314V26.2927H51.1708C51.1708 26.2927 51.1708 26.7699 51.1708 27.7242V31.0314V35.7701C51.1708 35.7701 50.6936 35.7701 49.7393 35.7701H51.1708C51.1708 35.7701 51.1708 36.2472 51.1708 37.2015V40.5088V45.2474C51.1708 45.2474 50.6936 45.2474 49.7393 45.2474H51.1708C51.1708 45.2474 51.1708 45.7246 51.1708 46.6789V49.9861V54.7248C51.1708 54.7248 50.6936 54.7248 49.7393 54.7248H46.4321H41.6934ZM18 49.9861C18 49.9861 18 49.509 18 48.5546V45.2474V40.5088C18 40.5088 18 40.0316 18 39.0773V35.7701V31.0314C18 31.0314 18 30.5542 18 29.5999V26.2927V21.554H27.4774C27.4774 21.554 27.4774 22.0312 27.4774 22.9855V26.2927V31.0314C27.4774 31.0314 27.0002 31.0314 26.0459 31.0314H27.4774C27.4774 31.0314 27.4774 31.5085 27.4774 32.4629V35.7701V40.5088C27.4774 40.5088 27.0002 40.5088 26.0459 40.5088H27.4774C27.4774 40.5088 27.4774 40.9859 27.4774 41.9402V45.2474V49.9861C27.4774 49.9861 27.0002 49.9861 26.0459 49.9861H18ZM41.6934 49.9861C41.6934 49.9861 41.6934 49.509 41.6934 48.5546V45.2474V40.5088C41.6934 40.5088 41.6934 40.0316 41.6934 39.0773V35.7701V31.0314C41.6934 31.0314 41.6934 30.5542 41.6934 29.5999V26.2927V21.554H51.1708C51.1708 21.554 51.1708 22.0312 51.1708 22.9855V26.2927V31.0314C51.1708 31.0314 50.6936 31.0314 49.7393 31.0314H51.1708C51.1708 31.0314 51.1708 31.5085 51.1708 32.4629V35.7701V40.5088C51.1708 40.5088 50.6936 40.5088 49.7393 40.5088H51.1708C51.1708 40.5088 51.1708 40.9859 51.1708 41.9402V45.2474V49.9861C51.1708 49.9861 50.6936 49.9861 49.7393 49.9861H41.6934Z" fill="white"/>
<path d="M53.5679 78.4182C53.5679 78.4182 53.5679 77.9411 53.5679 76.9868V73.6795V68.9409C53.5679 68.9409 53.5679 68.4637 53.5679 67.5094V64.2022V59.4635C53.5679 59.4635 53.5679 58.9863 53.5679 58.032V54.7248V49.9861C53.5679 49.9861 53.5679 49.509 53.5679 48.5546V45.2474V40.5088H63.0453C63.0453 40.5088 63.0453 40.9859 63.0453 41.9402V45.2474V49.9861C63.0453 49.9861 62.5681 49.9861 61.6138 49.9861H63.0453C63.0453 49.9861 63.0453 50.4633 63.0453 51.4176V54.7248V59.4635C63.0453 59.4635 62.5681 59.4635 61.6138 59.4635H63.0453C63.0453 59.4635 63.0453 59.9406 63.0453 60.895V64.2022V68.9409C63.0453 68.9409 62.5681 68.9409 61.6138 68.9409H63.0453C63.0453 68.9409 63.0453 69.418 63.0453 70.3723V73.6795V78.4182C63.0453 78.4182 62.5681 78.4182 61.6138 78.4182H53.5679ZM72.5226 78.4182C72.5226 78.4182 72.5226 77.9411 72.5226 76.9868V73.6795V68.9409C72.5226 68.9409 72.5226 68.4637 72.5226 67.5094V64.2022V59.4635C72.5226 59.4635 72.5226 58.9863 72.5226 58.032V54.7248V49.9861C72.5226 49.9861 72.5226 49.509 72.5226 48.5546V45.2474V40.5088H82C82 40.5088 82 40.9859 82 41.9402V45.2474V49.9861C82 49.9861 81.5228 49.9861 80.5685 49.9861H82C82 49.9861 82 50.4633 82 51.4176V54.7248V59.4635C82 59.4635 81.5228 59.4635 80.5685 59.4635H82C82 59.4635 82 59.9406 82 60.895V64.2022V68.9409C82 68.9409 81.5228 68.9409 80.5685 68.9409H82C82 68.9409 82 69.418 82 70.3723V73.6795V78.4182C82 78.4182 81.5228 78.4182 80.5685 78.4182H72.5226ZM53.5679 73.6795C53.5679 73.6795 53.5679 73.2024 53.5679 72.2481V68.9409V64.2022C53.5679 64.2022 53.5679 63.725 53.5679 62.7707V59.4635V54.7248C53.5679 54.7248 53.5679 54.2476 53.5679 53.2933V49.9861V45.2474C53.5679 45.2474 53.5679 44.7703 53.5679 43.816V40.5088V35.7701H58.3066H63.0453C63.0453 35.7701 63.0453 36.2472 63.0453 37.2015V40.5088V45.2474C63.0453 45.2474 62.5681 45.2474 61.6138 45.2474H63.0453C63.0453 45.2474 63.0453 45.7246 63.0453 46.6789V49.9861V54.7248C63.0453 54.7248 62.5681 54.7248 61.6138 54.7248H63.0453C63.0453 54.7248 63.0453 55.202 63.0453 56.1563V54.7248H67.784H72.5226C72.5226 54.7248 72.5226 55.202 72.5226 56.1563V54.7248C72.5226 54.7248 72.5226 54.2476 72.5226 53.2933V49.9861V45.2474C72.5226 45.2474 72.5226 44.7703 72.5226 43.816V40.5088V35.7701H77.2613H82C82 35.7701 82 36.2472 82 37.2015V40.5088V45.2474C82 45.2474 81.5228 45.2474 80.5685 45.2474H82C82 45.2474 82 45.7246 82 46.6789V49.9861V54.7248C82 54.7248 81.5228 54.7248 80.5685 54.7248H82C82 54.7248 82 55.202 82 56.1563V59.4635V64.2022C82 64.2022 81.5228 64.2022 80.5685 64.2022H82C82 64.2022 82 64.6793 82 65.6337V68.9409V73.6795C82 73.6795 81.5228 73.6795 80.5685 73.6795H72.5226C72.5226 73.6795 72.5226 73.2024 72.5226 72.2481V68.9409V64.2022C72.5226 64.2022 72.5226 63.725 72.5226 62.7707V64.2022C72.5226 64.2022 72.0455 64.2022 71.0912 64.2022H67.784H63.0453C63.0453 64.2022 63.0453 63.725 63.0453 62.7707V64.2022C63.0453 64.2022 62.5681 64.2022 61.6138 64.2022H63.0453C63.0453 64.2022 63.0453 64.6793 63.0453 65.6337V68.9409V73.6795C63.0453 73.6795 62.5681 73.6795 61.6138 73.6795H53.5679ZM58.3066 64.2022C58.3066 64.2022 58.3066 63.725 58.3066 62.7707V54.7248H63.0453H67.784C67.784 54.7248 67.784 55.202 67.784 56.1563V54.7248H72.5226H77.2613C77.2613 54.7248 77.2613 55.202 77.2613 56.1563V64.2022C77.2613 64.2022 76.7842 64.2022 75.8298 64.2022H72.5226H67.784C67.784 64.2022 67.784 63.725 67.784 62.7707V64.2022C67.784 64.2022 67.3068 64.2022 66.3525 64.2022H63.0453H58.3066ZM55.9372 40.5088C55.9372 40.5088 55.9372 40.0316 55.9372 39.0773V31.0314H60.6759H65.4146C65.4146 31.0314 65.4146 31.5085 65.4146 32.4629V40.5088C65.4146 40.5088 64.9374 40.5088 63.9831 40.5088H55.9372ZM70.1533 40.5088C70.1533 40.5088 70.1533 40.0316 70.1533 39.0773V31.0314H74.892H79.6307C79.6307 31.0314 79.6307 31.5085 79.6307 32.4629V40.5088C79.6307 40.5088 79.1535 40.5088 78.1992 40.5088H70.1533ZM58.3066 35.7701C58.3066 35.7701 58.3066 35.2929 58.3066 34.3386V26.2927H67.784C67.784 26.2927 67.784 26.7699 67.784 27.7242V26.2927H77.2613C77.2613 26.2927 77.2613 26.7699 77.2613 27.7242V35.7701C77.2613 35.7701 76.7842 35.7701 75.8298 35.7701H72.5226H67.784C67.784 35.7701 67.784 35.2929 67.784 34.3386V35.7701C67.784 35.7701 67.3068 35.7701 66.3525 35.7701H63.0453H58.3066ZM60.6759 31.0314C60.6759 31.0314 60.6759 30.5542 60.6759 29.5999V21.554H65.4146H70.1533C70.1533 21.554 70.1533 22.0312 70.1533 22.9855V31.0314C70.1533 31.0314 69.6761 31.0314 68.7218 31.0314H65.4146H60.6759ZM65.4146 31.0314C65.4146 31.0314 65.4146 30.5542 65.4146 29.5999V21.554H70.1533H74.892C74.892 21.554 74.892 22.0312 74.892 22.9855V31.0314C74.892 31.0314 74.4148 31.0314 73.4605 31.0314H70.1533H65.4146Z" fill="white"/>
</svg>
