<svg xmlns="http://www.w3.org/2000/svg" viewBox="0 0 100 100">
  <path fill="#f5efdf" d="M 18 0 L 82 0 C 91.94112 0 100 8.058874 100 18 L 100 82 C 100 91.94112 91.94112 100 82 100 L 18 100 C 8.058874 100 0 91.94112 0 82 L 0 18 C -0 8.058874 8.058874 0 18 0 Z"/>
  <path fill="#2a3d78" d="M 40.424004 75.008 Q 37.976 75.008 36.536003 73.964 Q 35.096 72.92 33.656002 70.688 Q 32.36 68.6 31.280003 65.468 Q 30.2 62.336 29.552002 58.16 Q 28.904 53.984 28.904 48.800007 Q 28.904 48.008003 28.94 47 Q 28.976002 45.992004 28.976002 44.984 Q 28.976002 43.976 28.976002 43.256004 Q 28.976002 42.032 28.580002 41.600002 Q 28.184002 41.168003 27.320004 41.168003 Q 26.528002 41.168003 24.980001 41.600002 Q 23.432 42.032 22.496002 42.536003 L 21.272001 38.936 Q 22.496002 38.216003 25.016003 37.352 Q 27.536 36.488003 30.056002 36.488003 Q 33.08 36.488003 34.268 38.108 Q 35.456 39.728 35.456 42.104004 Q 35.456 43.904 35.384003 45.272003 Q 35.312 46.64 35.312 48.296 Q 35.312 55.496002 36.284 59.816 Q 37.256 64.136 38.696 67.088 Q 39.632 68.96 40.352 69.536 Q 41.072 70.112 42.08 70.112 L 43.304 70.112 L 52.304 49.736004 Q 53.527996 47 53.276 45.74 Q 53.024 44.480003 51.152 43.76 L 48.631996 42.824 Q 48.128 40.088 49.531998 38.288002 Q 50.936 36.488003 53.6 36.488003 Q 56.408 36.488003 57.992004 38.108 Q 59.576004 39.728 59.576004 42.824 Q 59.576004 45.704002 58.64 48.043995 Q 57.704 50.384007 56.263996 53.336 L 46.472004 73.784 Q 45.032 74.432 43.376 74.72 Q 41.72 75.008 40.424004 75.008 Z M 63.392 70.4 Q 63.392 68.744 64.112 67.484 Q 64.832 66.224 66.128006 65.504 Q 67.423996 64.784 69.152 64.784 Q 70.808 64.784 72.068 65.395996 Q 73.328 66.008 74.012 67.124 Q 74.696 68.24 74.696 69.752 Q 74.696 71.48 73.904 72.704 Q 73.112 73.928 71.78 74.576 Q 70.448 75.224 68.792 75.224 Q 67.208 75.224 65.984 74.648 Q 64.76 74.072 64.076004 73.028 Q 63.392 71.984 63.392 70.4 Z"/>
</svg>
