<svg width="128" height="128" viewBox="0 0 128 128" fill="none" xmlns="http://www.w3.org/2000/svg">
<rect width="128" height="128" rx="38" fill="url(#paint0_linear)"/>
<path d="M59.3451 87.5243C63.2141 87.5243 66.5995 85.391 69.5013 81.1243C72.403 76.7423 74.5525 71.4378 75.9496 65.2108C72.0806 63.9423 69.1251 61.7514 67.0831 58.6378C65.0411 55.409 64.0202 51.7189 64.0202 47.5676C64.0202 43.4162 64.9874 39.7838 66.9219 36.6703C68.9639 33.5568 71.8657 32 75.6272 32C77.8841 32 79.6037 33.5568 80.7859 36.6703C81.9681 39.6685 82.5592 43.0703 82.5592 46.8757C82.5592 50.6811 82.2905 54.4865 81.7531 58.2919C83.3652 58.9838 85.0848 59.3297 86.9118 59.3297C91.1033 59.3297 95.1335 57.2541 99.0025 53.1027C100.937 51.027 102.227 49.9892 102.872 49.9892C103.624 49.9892 104 50.5658 104 51.7189C104 52.8721 103.301 54.2559 101.904 55.8703C96.2082 62.6739 89.0076 66.0757 80.3023 66.0757C78.2603 74.4937 75.0898 81.5856 70.7909 87.3513C66.492 93.1171 61.2259 96 54.9924 96C51.3384 96 48.3291 94.3279 45.9647 90.9838C41.9882 85.564 40 77.6072 40 67.1135C40 63.5387 40.2687 58.9261 40.806 53.2757C41.3434 47.6252 41.9345 44.1658 42.5793 42.8973C43.3317 41.6288 45.0512 40.0721 47.738 38.227C50.5323 36.382 52.4668 35.4595 53.5416 35.4595C55.1537 35.4595 55.9597 36.4973 55.9597 38.573C55.9597 44.4541 54.5626 50.854 51.7683 57.773C51.7683 65.9604 52.3594 72.9946 53.5416 78.8757C54.8312 84.6414 56.7657 87.5243 59.3451 87.5243ZM74.0151 38.573C73.1553 38.573 72.7254 40.4757 72.7254 44.2811C72.7254 48.0865 74.3375 51.7189 77.5617 55.1784C77.7767 53.7946 77.8841 52.4108 77.8841 51.027C77.8841 42.7243 76.5945 38.573 74.0151 38.573Z" fill="black"/>
<defs>
<linearGradient id="paint0_linear" x1="0" y1="-1.52588e-05" x2="128" y2="128" gradientUnits="userSpaceOnUse">
<stop stop-color="#F8ACFF"/>
<stop offset="1" stop-color="#696EFF"/>
</linearGradient>
</defs>
</svg>
