<svg width="128" height="128" viewBox="0 0 128 128" fill="none" xmlns="http://www.w3.org/2000/svg">
<rect x="4" y="4" width="120" height="120" rx="34" fill="black"/>
<path d="M34.1316 39.0001C33.3791 39.6392 32.7317 40.4851 32.2007 41.5631C31.6991 42.681 31.3104 43.8457 31.0346 45.0583C30.8036 46.288 30.6906 47.4339 30.6906 48.4981C30.6906 49.2724 30.7567 50.02 30.8876 50.7418C31.0637 51.4503 31.3274 52.1663 31.6827 52.8904L32.3894 54.3309H30.7849C28.269 54.3309 26.2147 53.7316 24.8759 52.3052C23.6176 50.9646 23 49.3008 23 47.3829C23 45.7287 23.4064 44.0499 24.1858 42.3554L25.0943 42.7732L24.1858 42.3554C24.9652 40.661 26.0293 39.1287 27.3718 37.7606C28.7676 36.338 30.3723 35.2035 32.1808 34.3601C34.0655 33.4541 36.0601 33 38.1534 33C41.7499 33 44.5798 34.3698 46.4895 37.1474C48.3491 39.8028 49.2213 43.3748 49.2213 47.7546C49.2213 50.5558 48.8968 53.4732 48.2527 56.5051C47.6634 59.5065 46.9273 62.5312 46.0448 65.5792L46.0435 65.5835C45.1661 68.564 44.2642 71.4706 43.3378 74.3033C42.4678 77.1111 41.7197 79.7185 41.0928 82.1261C40.5228 84.4511 40.2478 86.4474 40.2478 88.1264C40.2478 88.8102 40.3288 89.2587 40.4339 89.5309C40.4465 89.5457 40.4661 89.5608 40.5036 89.578C40.5776 89.6119 40.7285 89.6543 40.9987 89.6543C42.0968 89.6543 43.4651 89.1276 45.1336 87.8523L45.144 87.8443L45.1441 87.8444C46.8624 86.5665 48.6532 84.8193 50.5133 82.5838C52.3777 80.2937 54.1998 77.7047 55.9784 74.8142C57.7566 71.9246 59.367 68.9118 60.8096 65.7754C62.2467 62.6512 63.3694 59.5578 64.1804 56.495L64.1822 56.488L64.1842 56.481C65.0405 53.4265 65.4603 50.6437 65.4603 48.1264C65.4603 45.5922 65.0103 43.8125 64.2417 42.6583C63.4233 41.4292 62.4229 40.6377 61.2407 40.2223L60.2067 39.8589L60.663 38.8625C61.3908 37.2732 62.3189 36.0326 63.4954 35.2515C64.5916 34.5075 65.6889 34.0409 66.7521 34.0409C68.5462 34.0409 70.0492 35.2009 71.2949 36.9994C72.6226 38.9163 73.2238 41.5254 73.2238 44.7063C73.2238 47.5042 72.691 50.674 71.6523 54.2038C70.6626 57.6821 69.2807 61.3004 67.5108 65.0581L67.5086 65.0628C65.7402 68.7674 63.7268 72.3956 61.4688 75.9473C59.2548 79.457 56.8894 82.6469 54.3715 85.5148C51.8987 88.3371 49.4055 90.6041 46.8883 92.2981C44.3487 94.0567 41.8444 95 39.3937 95C38.4816 95 37.4316 94.7995 36.2658 94.4389C34.9824 94.0787 33.8556 93.3124 32.8806 92.2084L32.8787 92.2062C31.8315 91.0135 31.3899 89.3495 31.3899 87.3829C31.3899 85.7287 31.7027 83.7779 32.2994 81.5482C32.8887 79.346 33.6238 76.8994 34.5036 74.2096C35.3744 71.5473 36.2459 68.6856 37.1181 65.624C37.984 62.5355 38.706 59.3471 39.284 56.0587C39.8576 52.7457 40.1446 49.3831 40.1446 45.9703C40.1446 44.2799 40.026 42.8052 39.7959 41.5394L40.7798 41.3606L39.7959 41.5394C39.5724 40.3094 39.1869 39.4526 38.7048 38.8858C38.308 38.4191 37.6952 38.1227 36.6943 38.1227C35.6412 38.1227 34.8076 38.426 34.1316 39.0001ZM34.1316 39.0001L33.4843 38.2379L34.1316 39.0001ZM82.4804 85.6152C81.0432 87.2534 79.6778 88.6194 78.3841 89.7057C76.6275 91.2227 74.6774 92.026 72.5561 92.026C70.7023 92.026 69.0743 91.3878 67.7223 90.1279C66.2357 88.7901 65.5737 86.8441 65.5737 84.4833C65.5737 82.5995 65.9959 80.5936 66.8071 78.4751C67.6163 76.362 68.7249 74.2851 70.1267 72.2442C71.5303 70.2008 73.136 68.3591 74.9433 66.7212C76.758 65.0268 78.7077 63.6578 80.7926 62.6213C82.9088 61.5693 85.0543 61.0297 87.2202 61.0297C89.494 61.0297 91.4877 61.6262 93.1446 62.8644C94.8501 64.139 95.7346 65.8703 95.7346 67.9777C95.7346 69.5708 95.1647 70.8975 93.8897 71.7182C93.7483 71.8092 93.6042 71.892 93.4575 71.9669C93.9311 72.446 94.2025 73.0586 94.2025 73.777C94.2025 74.5271 93.886 75.3496 93.4269 76.1833C93.0254 76.9497 92.5292 77.8087 91.9407 78.7585C91.4273 79.6152 90.9603 80.4954 90.5397 81.3992C90.2004 82.1807 90.0441 82.9088 90.0441 83.5911C90.0441 84.0437 90.1598 84.4872 90.412 84.9344C90.5302 85.1158 90.7283 85.2677 91.2327 85.2677C91.584 85.2677 92.1145 85.1314 92.8603 84.7344C93.5939 84.3438 94.466 83.7387 95.4809 82.8969C97.4715 81.237 99.5621 78.3744 101.726 74.2082L102.362 72.9847L103.328 73.9688L104.714 75.3814L105.186 75.863L104.917 76.4815C103.718 79.2296 102.265 81.6846 100.552 83.8404M82.4804 85.6152L100.552 83.8413C100.552 83.841 100.552 83.8407 100.552 83.8404M82.4804 85.6152C82.783 86.6057 83.2728 87.5456 83.9415 88.4315C85.1477 90.0295 86.9642 90.7621 89.19 90.7621C91.2624 90.7621 93.2723 90.093 95.2049 88.8173M82.4804 85.6152L95.2049 88.8173M100.552 83.8404C98.8946 85.9391 97.1144 87.6062 95.2049 88.8173M100.552 83.8404L95.2049 88.8173M89.2301 70.4148C88.8552 70.5479 88.5629 70.8141 88.3611 71.1339C87.4374 72.3734 86.3484 73.8782 85.0948 75.647C83.8449 77.3614 82.5225 79.052 81.1275 80.7188L81.122 80.7254L81.1166 80.7321C79.7898 82.374 78.4754 83.7353 77.1754 84.8247C75.9012 85.843 74.8815 86.2342 74.0881 86.2342C73.7967 86.2342 73.7085 86.1504 73.6468 86.0631C73.5401 85.9118 73.4101 85.561 73.4101 84.855C73.4101 83.6039 73.674 82.1527 74.2334 80.4899C74.7939 78.8238 75.5681 77.1236 76.561 75.389L76.5611 75.389L76.5668 75.3788C77.5586 73.5979 78.6647 71.9922 79.8837 70.5588C81.1478 69.0799 82.4422 67.9068 83.7629 67.025C85.0494 66.166 86.2455 65.7807 87.3661 65.7807C88.4372 65.7807 88.7971 66.1015 88.9488 66.4107C89.2628 67.0508 89.4302 67.7894 89.4302 68.6468C89.4302 69.0769 89.388 69.476 89.3073 69.8464L89.296 69.8983L89.2902 69.9511C89.2734 70.1056 89.2533 70.2601 89.2301 70.4148Z" fill="url(#paint0_linear_1749_4)" stroke="url(#paint1_linear_1749_4)" stroke-width="2"/>
<rect x="4" y="4" width="120" height="120" rx="34" stroke="url(#paint2_linear_1749_4)" stroke-width="8"/>
<defs>
<linearGradient id="paint0_linear_1749_4" x1="24" y1="34" x2="81.6" y2="110.8" gradientUnits="userSpaceOnUse">
<stop offset="0.0570247" stop-color="#FF9999"/>
<stop offset="0.250909" stop-color="#CCFF99"/>
<stop offset="0.513223" stop-color="#99FFFF"/>
<stop offset="0.764637" stop-color="#9999FF"/>
<stop offset="0.942975" stop-color="#FF99EE"/>
</linearGradient>
<linearGradient id="paint1_linear_1749_4" x1="24" y1="34" x2="81.6" y2="110.8" gradientUnits="userSpaceOnUse">
<stop offset="0.0570247" stop-color="#FF9999"/>
<stop offset="0.250909" stop-color="#CCFF99"/>
<stop offset="0.513223" stop-color="#99FFFF"/>
<stop offset="0.764637" stop-color="#9999FF"/>
<stop offset="0.942975" stop-color="#FF99EE"/>
</linearGradient>
<linearGradient id="paint2_linear_1749_4" x1="0" y1="-1.52588e-05" x2="128" y2="128" gradientUnits="userSpaceOnUse">
<stop offset="0.0570247" stop-color="#FF9999"/>
<stop offset="0.250909" stop-color="#CCFF99"/>
<stop offset="0.513223" stop-color="#99FFFF"/>
<stop offset="0.764637" stop-color="#9999FF"/>
<stop offset="0.942975" stop-color="#FF99EE"/>
</linearGradient>
</defs>
</svg>
